<?xml version="1.0" encoding="UTF-8" standalone="no" ?>
<!DOCTYPE svg PUBLIC "-//W3C//DTD SVG 1.1//EN" "http://www.w3.org/Graphics/SVG/1.1/DTD/svg11.dtd">
<svg xmlns="http://www.w3.org/2000/svg" xmlns:xlink="http://www.w3.org/1999/xlink" version="1.1" width="601" height="100" viewBox="0 0 601 100" xml:space="preserve">
<desc>Created with Fabric.js 5.2.4</desc>
<defs>
</defs>
<rect x="0" y="0" width="100%" height="100%" fill="transparent"></rect>
<g transform="matrix(Infinity NaN NaN Infinity 0 0)" id="e7c320cb-a79e-453f-ae7b-c58e50499eb4"  >
</g>
<g transform="matrix(1 0 0 1 300.5 50)" id="22d622f1-76ee-41f4-ba95-30fd43fef9d2"  >
<rect style="stroke: none; stroke-width: 1; stroke-dasharray: none; stroke-linecap: butt; stroke-dashoffset: 0; stroke-linejoin: miter; stroke-miterlimit: 4; fill: rgb(255,255,255); fill-rule: nonzero; opacity: 1; visibility: hidden;" vector-effect="non-scaling-stroke"  x="-300.5" y="-50" rx="0" ry="0" width="601" height="100" />
</g>
<g transform="matrix(0.46 0 0 0.46 407.36 50)"  >
<g style="" vector-effect="non-scaling-stroke"   >
		<g transform="matrix(1 0 0 1 95.5 21.2)"  >
<path style="stroke: none; stroke-width: 1; stroke-dasharray: none; stroke-linecap: butt; stroke-dashoffset: 0; stroke-linejoin: miter; stroke-miterlimit: 4; fill: rgb(0,162,229); fill-rule: nonzero; opacity: 1;" vector-effect="non-scaling-stroke"  transform=" translate(-195.5, -98.9)" d="M 198.1 100.1 L 198.1 97.69999999999999 L 197.5 97.69999999999999 L 196.8 99.29999999999998 L 196.10000000000002 97.69999999999999 L 195.50000000000003 97.69999999999999 L 195.50000000000003 100.1 L 195.90000000000003 100.1 L 195.90000000000003 98.3 L 196.60000000000002 99.89999999999999 L 197.10000000000002 99.89999999999999 L 197.8 98.3 L 197.8 100.1 L 198.1 100.1 z M 194.1 100.1 L 194.1 98.1 L 194.9 98.1 L 194.9 97.69999999999999 L 192.9 97.69999999999999 L 192.9 98.1 L 193.70000000000002 98.1 L 193.70000000000002 100.1 L 194.1 100.1 z" stroke-linecap="round" />
</g>
		<g transform="matrix(1 0 0 1 -0.05 -15.9)"  >
<path style="stroke: none; stroke-width: 1; stroke-dasharray: none; stroke-linecap: butt; stroke-dashoffset: 0; stroke-linejoin: miter; stroke-miterlimit: 4; fill: rgb(115,117,207); fill-rule: nonzero; opacity: 1;" vector-effect="non-scaling-stroke"  transform=" translate(-99.95, -61.8)" d="M 127 110.4 L 72.9 110.4 L 72.9 13.2 L 127 13.2 L 127 110.4 z" stroke-linecap="round" />
</g>
		<g transform="matrix(1 0 0 1 -50 -15.9)"  >
<path style="stroke: none; stroke-width: 1; stroke-dasharray: none; stroke-linecap: butt; stroke-dashoffset: 0; stroke-linejoin: miter; stroke-miterlimit: 4; fill: rgb(235,0,27); fill-rule: nonzero; opacity: 1;" vector-effect="non-scaling-stroke"  transform=" translate(-50, -61.8)" d="M 76.4 61.8 C 76.4 42.099999999999994 85.60000000000001 24.5 100 13.199999999999996 C 89.5 4.9 76.2 0 61.8 0 C 27.7 0 0 27.7 0 61.8 C 0 95.89999999999999 27.7 123.6 61.8 123.6 C 76.2 123.6 89.5 118.69999999999999 100 110.39999999999999 C 85.6 99.1 76.4 81.5 76.4 61.8" stroke-linecap="round" />
</g>
		<g transform="matrix(1 0 0 1 50 -15.9)"  >
<path style="stroke: none; stroke-width: 1; stroke-dasharray: none; stroke-linecap: butt; stroke-dashoffset: 0; stroke-linejoin: miter; stroke-miterlimit: 4; fill: rgb(0,162,229); fill-rule: nonzero; opacity: 1;" vector-effect="non-scaling-stroke"  transform=" translate(-150, -61.8)" d="M 200 61.8 C 200 95.9 172.3 123.6 138.2 123.6 C 123.79999999999998 123.6 110.49999999999999 118.69999999999999 99.99999999999999 110.39999999999999 C 114.39999999999999 99.1 123.6 81.5 123.6 61.79999999999999 C 123.6 42.09999999999998 114.39999999999999 24.499999999999993 100 13.199999999999989 C 110.5 4.9 123.8 0 138.2 0 C 172.3 0 200 27.7 200 61.8" stroke-linecap="round" />
</g>
		<g transform="matrix(1 0 0 1 -0.1 66.45)"  >
<path style="stroke: none; stroke-width: 1; stroke-dasharray: none; stroke-linecap: butt; stroke-dashoffset: 0; stroke-linejoin: miter; stroke-miterlimit: 4; fill: rgb(0,0,0); fill-rule: nonzero; opacity: 1;" vector-effect="non-scaling-stroke"  transform=" translate(-99.9, -144.15)" d="M 145.2 137.9 C 145.89999999999998 137.9 147 138 147.7 138.3 L 146.6 141.70000000000002 C 145.79999999999998 141.4 145.1 141.3 144.4 141.3 C 142.1 141.3 140.9 142.8 140.9 145.5 L 140.9 154.7 L 137.3 154.7 L 137.3 138.29999999999998 L 140.8 138.29999999999998 L 140.8 140.29999999999998 C 141.8 138.8 143.2 137.9 145.2 137.9 M 132 141.5 L 126.2 141.5 L 126.2 148.9 C 126.2 150.5 126.8 151.6 128.6 151.6 C 129.5 151.6 130.7 151.29999999999998 131.79999999999998 150.7 L 132.79999999999998 153.79999999999998 C 131.7 154.6 129.89999999999998 155.1 128.29999999999998 155.1 C 124.09999999999998 155.1 122.59999999999998 152.79999999999998 122.59999999999998 149 L 122.59999999999998 141.5 L 119.29999999999998 141.5 L 119.29999999999998 138.2 L 122.59999999999998 138.2 L 122.59999999999998 133.2 L 126.19999999999997 133.2 L 126.19999999999997 138.2 L 131.99999999999997 138.2 L 131.99999999999997 141.5 z M 86.3 145 C 86.7 142.6 88.1 141 90.7 141 C 93 141 94.5 142.4 94.9 145 L 86.3 145 z M 98.6 146.5 C 98.6 141.4 95.39999999999999 137.9 90.8 137.9 C 86 137.9 82.6 141.4 82.6 146.5 C 82.6 151.7 86.1 155.1 91 155.1 C 93.5 155.1 95.7 154.5 97.7 152.79999999999998 L 95.9 150.2 C 94.5 151.29999999999998 92.80000000000001 151.89999999999998 91.10000000000001 151.89999999999998 C 88.80000000000001 151.89999999999998 86.7 150.79999999999998 86.2 147.89999999999998 L 98.4 147.89999999999998 C 98.5 147.4 98.6 147 98.6 146.5 M 114.3 142.5 C 113.3 141.9 111.3 141.1 109.2 141.1 C 107.2 141.1 106.10000000000001 141.79999999999998 106.10000000000001 143 C 106.10000000000001 144.1 107.30000000000001 144.4 108.9 144.6 L 110.60000000000001 144.79999999999998 C 114.2 145.29999999999998 116.30000000000001 146.79999999999998 116.30000000000001 149.7 C 116.30000000000001 152.79999999999998 113.60000000000001 155.1 108.80000000000001 155.1 C 106.10000000000001 155.1 103.60000000000001 154.4 101.70000000000002 153 L 103.40000000000002 150.2 C 104.60000000000002 151.1 106.40000000000002 151.89999999999998 108.90000000000002 151.89999999999998 C 111.30000000000003 151.89999999999998 112.60000000000002 151.2 112.60000000000002 149.89999999999998 C 112.60000000000002 148.99999999999997 111.70000000000002 148.49999999999997 109.70000000000002 148.2 L 108.00000000000001 148 C 104.30000000000001 147.5 102.30000000000001 145.8 102.30000000000001 143.2 C 102.30000000000001 139.89999999999998 105.00000000000001 137.89999999999998 109.10000000000001 137.89999999999998 C 111.7 137.89999999999998 114.10000000000001 138.49999999999997 115.80000000000001 139.59999999999997 L 114.3 142.5 z M 158.3 141.2 C 157.60000000000002 141.2 156.9 141.29999999999998 156.3 141.6 C 155.70000000000002 141.9 155.10000000000002 142.2 154.70000000000002 142.7 C 154.3 143.2 153.9 143.7 153.60000000000002 144.39999999999998 C 153.3 144.99999999999997 153.20000000000002 145.79999999999998 153.20000000000002 146.49999999999997 C 153.20000000000002 147.29999999999998 153.3 147.99999999999997 153.60000000000002 148.59999999999997 C 153.90000000000003 149.19999999999996 154.20000000000002 149.79999999999995 154.70000000000002 150.29999999999995 C 155.20000000000002 150.79999999999995 155.70000000000002 151.09999999999997 156.3 151.39999999999995 C 156.9 151.69999999999996 157.60000000000002 151.79999999999995 158.3 151.79999999999995 C 159 151.79999999999995 159.70000000000002 151.69999999999996 160.3 151.39999999999995 C 160.9 151.09999999999994 161.5 150.79999999999995 161.9 150.29999999999995 C 162.4 149.79999999999995 162.70000000000002 149.29999999999995 163 148.59999999999997 C 163.3 147.99999999999997 163.4 147.19999999999996 163.4 146.49999999999997 C 163.4 145.69999999999996 163.3 144.99999999999997 163 144.39999999999998 C 162.7 143.79999999999998 162.4 143.2 161.9 142.7 C 161.4 142.2 160.9 141.89999999999998 160.3 141.6 C 159.7 141.4 159 141.2 158.3 141.2 M 158.3 137.9 C 159.60000000000002 137.9 160.8 138.1 161.8 138.6 C 162.9 139 163.8 139.6 164.60000000000002 140.4 C 165.40000000000003 141.20000000000002 166.00000000000003 142.1 166.50000000000003 143.1 C 166.90000000000003 144.2 167.20000000000002 145.29999999999998 167.20000000000002 146.5 C 167.20000000000002 147.7 167.00000000000003 148.9 166.50000000000003 149.9 C 166.10000000000002 151 165.40000000000003 151.9 164.60000000000002 152.6 C 163.8 153.4 162.90000000000003 154 161.8 154.4 C 160.70000000000002 154.8 159.5 155.1 158.3 155.1 C 157 155.1 155.8 154.9 154.8 154.4 C 153.70000000000002 154 152.8 153.4 152 152.6 C 151.2 151.79999999999998 150.6 150.9 150.1 149.9 C 149.7 148.8 149.4 147.70000000000002 149.4 146.5 C 149.4 145.3 149.6 144.1 150.1 143.1 C 150.5 142 151.2 141.1 152 140.4 C 152.8 139.6 153.7 139 154.8 138.6 C 155.8 138.1 157 137.9 158.3 137.9 M 65.5 146.5 C 65.5 143.6 67.4 141.2 70.5 141.2 C 73.5 141.2 75.4 143.5 75.4 146.5 C 75.4 149.5 73.4 151.7 70.5 151.7 C 67.4 151.7 65.5 149.4 65.5 146.5 M 78.8 146.5 L 78.8 138.3 L 75.2 138.3 L 75.2 140.3 C 74.10000000000001 138.8 72.4 137.9 70 137.9 C 65.4 137.9 61.8 141.5 61.8 146.5 C 61.8 151.5 65.39999999999999 155.1 70 155.1 C 72.3 155.1 74 154.2 75.2 152.7 L 75.2 154.7 L 78.8 154.7 L 78.8 146.5 z M 58.7 154.7 L 58.7 144.39999999999998 C 58.7 140.49999999999997 56.2 137.89999999999998 52.2 137.89999999999998 C 50.1 137.89999999999998 47.900000000000006 138.49999999999997 46.400000000000006 140.79999999999998 C 45.300000000000004 138.99999999999997 43.50000000000001 137.89999999999998 41.00000000000001 137.89999999999998 C 39.300000000000004 137.89999999999998 37.50000000000001 138.39999999999998 36.20000000000001 140.29999999999998 L 36.20000000000001 138.29999999999998 L 32.60000000000001 138.29999999999998 L 32.60000000000001 154.7 L 36.20000000000001 154.7 L 36.20000000000001 145.6 C 36.20000000000001 142.79999999999998 37.80000000000001 141.2 40.20000000000001 141.2 C 42.60000000000001 141.2 43.80000000000001 142.7 43.80000000000001 145.5 L 43.80000000000001 154.6 L 47.40000000000001 154.6 L 47.40000000000001 145.5 C 47.40000000000001 142.7 49.100000000000016 141.1 51.40000000000001 141.1 C 53.80000000000001 141.1 55.000000000000014 142.6 55.000000000000014 145.4 L 55.000000000000014 154.5 L 58.7 154.5 z" stroke-linecap="round" />
</g>
		<g transform="matrix(1 0 0 1 71.25 76.15)"  >
<path style="stroke: none; stroke-width: 1; stroke-dasharray: none; stroke-linecap: butt; stroke-dashoffset: 0; stroke-linejoin: miter; stroke-miterlimit: 4; fill: rgb(0,0,0); fill-rule: nonzero; opacity: 1;" vector-effect="non-scaling-stroke"  transform=" translate(-171.25, -153.85)" d="M 171 153.4 L 171 153.8 L 171.4 153.8 C 171.5 153.8 171.6 153.8 171.6 153.70000000000002 C 171.7 153.70000000000002 171.7 153.60000000000002 171.7 153.50000000000003 C 171.7 153.40000000000003 171.7 153.40000000000003 171.6 153.40000000000003 C 171.6 153.40000000000003 171.5 153.30000000000004 171.4 153.30000000000004 L 171 153.30000000000004 z M 171.4 153.2 C 171.6 153.2 171.70000000000002 153.2 171.8 153.29999999999998 C 171.9 153.39999999999998 172 153.49999999999997 172 153.7 C 172 153.79999999999998 172 153.89999999999998 171.9 154 C 171.8 154.1 171.70000000000002 154.1 171.5 154.1 L 172 154.7 L 171.6 154.7 L 171.1 154.1 L 171 154.1 L 171 154.7 L 170.7 154.7 L 170.7 153.2 L 171.4 153.2 z M 171.3 155.2 C 171.5 155.2 171.60000000000002 155.2 171.8 155.1 C 172 155 172.10000000000002 154.9 172.20000000000002 154.79999999999998 C 172.3 154.7 172.4 154.6 172.50000000000003 154.39999999999998 C 172.60000000000002 154.2 172.60000000000002 154.09999999999997 172.60000000000002 153.89999999999998 C 172.60000000000002 153.7 172.60000000000002 153.59999999999997 172.50000000000003 153.39999999999998 C 172.40000000000003 153.2 172.30000000000004 153.09999999999997 172.20000000000002 152.99999999999997 C 172.10000000000002 152.89999999999998 172.00000000000003 152.79999999999998 171.8 152.69999999999996 C 171.70000000000002 152.59999999999997 171.5 152.59999999999997 171.3 152.59999999999997 C 171.10000000000002 152.59999999999997 171 152.59999999999997 170.8 152.69999999999996 C 170.60000000000002 152.79999999999995 170.5 152.89999999999995 170.4 152.99999999999997 C 170.3 153.09999999999997 170.20000000000002 153.29999999999998 170.1 153.39999999999998 C 170 153.59999999999997 170 153.7 170 153.89999999999998 C 170 154.09999999999997 170 154.2 170.1 154.39999999999998 C 170.2 154.59999999999997 170.29999999999998 154.7 170.4 154.79999999999998 C 170.5 154.89999999999998 170.70000000000002 154.99999999999997 170.8 155.1 C 171 155.2 171.1 155.2 171.3 155.2 M 171.3 152.3 C 171.5 152.3 171.70000000000002 152.3 171.9 152.4 C 172.1 152.5 172.3 152.6 172.4 152.70000000000002 C 172.5 152.8 172.70000000000002 153.00000000000003 172.8 153.20000000000002 C 172.9 153.4 172.9 153.60000000000002 172.9 153.8 C 172.9 154 172.9 154.20000000000002 172.8 154.4 C 172.70000000000002 154.6 172.60000000000002 154.8 172.4 154.9 C 172.20000000000002 155 172.1 155.20000000000002 171.9 155.3 C 171.70000000000002 155.4 171.5 155.4 171.3 155.4 C 171.10000000000002 155.4 170.8 155.4 170.60000000000002 155.3 C 170.40000000000003 155.20000000000002 170.20000000000002 155.10000000000002 170.10000000000002 154.9 C 170.00000000000003 154.8 169.8 154.6 169.70000000000002 154.4 C 169.60000000000002 154.20000000000002 169.60000000000002 154 169.60000000000002 153.8 C 169.60000000000002 153.60000000000002 169.60000000000002 153.4 169.70000000000002 153.20000000000002 C 169.8 153.00000000000003 169.9 152.8 170.10000000000002 152.70000000000002 C 170.20000000000002 152.60000000000002 170.40000000000003 152.4 170.60000000000002 152.4 C 170.8 152.3 171.1 152.3 171.3 152.3" stroke-linecap="round" />
</g>
</g>
</g>
<g transform="matrix(0.48 0 0 0.48 94.21 50)"  >
<g style="" vector-effect="non-scaling-stroke"   >
		<g transform="matrix(1 0 0 1 -1.38 0)"  >
<path style="stroke: none; stroke-width: 1; stroke-dasharray: none; stroke-linecap: butt; stroke-dashoffset: 0; stroke-linejoin: miter; stroke-miterlimit: 4; fill: rgb(15,117,78); fill-rule: nonzero; opacity: 1;" vector-effect="non-scaling-stroke"  transform=" translate(-205.5, -60.99)" d="M 31 13 L 64 13 C 67 13 76 12 80 26 C 83 35 87 49 93 70 L 95 70 C 101 48 106 33 108 26 C 112 12 122 13 126 13 L 157 13 L 157 109 L 125 109 L 125 52 L 123 52 L 106 109 L 82 109 L 65 52 L 62 52 L 62 109 L 31 109 M 170 13 L 202 13 L 202 70 L 205 70 L 226 23 C 230 14 239 13 239 13 L 269 13 L 269 109 L 237 109 L 237 52 L 235 52 L 214 99 C 210 108 200 109 200 109 L 170 109 M 312 80 L 312 109 L 282 109 L 282 59 L 380 59 C 376 71 362 80 346 80" stroke-linecap="round" />
</g>
		<g transform="matrix(1 0 0 1 124.5 -27.99)"  >
<linearGradient id="SVGID_34" gradientUnits="userSpaceOnUse" gradientTransform="matrix(1 0 0 1 0 0)"  x1="370" y1="0" x2="290" y2="0">
<stop offset="0%" style="stop-color:rgb(31,92,215);stop-opacity: 1"/>
<stop offset="100%" style="stop-color:rgb(2,174,255);stop-opacity: 1"/>
</linearGradient>
<path style="stroke: none; stroke-width: 1; stroke-dasharray: none; stroke-linecap: butt; stroke-dashoffset: 0; stroke-linejoin: miter; stroke-miterlimit: 4; fill: url(#SVGID_34); fill-rule: nonzero; opacity: 1;" vector-effect="non-scaling-stroke"  transform=" translate(-331.38, -33)" d="M 382 53 C 386 35 374 13 348 13 L 280 13 C 282 34 300 53 319 53" stroke-linecap="round" />
</g>
</g>
</g>
<g transform="matrix(0.46 0 0 0.46 531.12 50)"  >
<g style="" vector-effect="non-scaling-stroke"   >
		<g transform="matrix(1 0 0 1 -64.45 0)"  >
<path style="stroke: none; stroke-width: 1; stroke-dasharray: none; stroke-linecap: butt; stroke-dashoffset: 0; stroke-linejoin: miter; stroke-miterlimit: 4; fill: rgb(226,24,54); fill-rule: nonzero; opacity: 1;" vector-effect="non-scaling-stroke"  transform=" translate(-63.31, -79.92)" d="M 50.041631 0.000667563305 L 113.820211 0.000667563305 C 122.723127 0.000667563305 128.260438 7.25731345 126.183558 16.1897657 L 96.4900715 143.675416 C 94.3945365 152.576777 85.480739 159.839641 76.571605 159.839641 L 12.7992433 159.839641 C 3.908764 159.839641 -1.64098444 152.576777 0.435896208 143.675416 L 30.1418186 16.1897657 C 32.2186993 7.25731345 41.1278333 0.000667563305 50.041631 0.000667563305" stroke-linecap="round" />
</g>
		<g transform="matrix(1 0 0 1 -4.83 0)"  >
<path style="stroke: none; stroke-width: 1; stroke-dasharray: none; stroke-linecap: butt; stroke-dashoffset: 0; stroke-linejoin: miter; stroke-miterlimit: 4; fill: rgb(0,68,124); fill-rule: nonzero; opacity: 1;" vector-effect="non-scaling-stroke"  transform=" translate(-122.93, -79.92)" d="M 108.513283 0.000667563305 L 181.857018 0.000667563305 C 190.758378 0.000667563305 186.744527 7.25731345 184.650546 16.1897657 L 154.961724 143.675416 C 152.878625 152.576777 153.528427 159.839641 144.608411 159.839641 L 71.2646775 159.839641 C 62.3446615 159.839641 56.8244495 152.576777 58.919985 143.675416 L 88.6072525 16.1897657 C 90.715224 7.25731345 99.6057035 0.000667563305 108.513283 0.000667563305" stroke-linecap="round" />
</g>
		<g transform="matrix(1 0 0 1 64.46 0)"  >
<path style="stroke: none; stroke-width: 1; stroke-dasharray: none; stroke-linecap: butt; stroke-dashoffset: 0; stroke-linejoin: miter; stroke-miterlimit: 4; fill: rgb(0,123,132); fill-rule: nonzero; opacity: 1;" vector-effect="non-scaling-stroke"  transform=" translate(-192.22, -79.92)" d="M 178.94783 0.000667563305 L 242.726409 0.000667563305 C 251.641762 0.000667563305 257.179074 7.25731345 255.085093 16.1897657 L 225.396271 143.675416 C 223.300736 152.576777 214.380719 159.839641 205.466922 159.839641 L 141.717879 159.839641 C 132.797863 159.839641 127.265215 152.576777 129.354532 143.675416 L 159.048017 16.1897657 C 161.124899 7.25731345 170.027814 0.000667563305 178.94783 0.000667563305" stroke-linecap="round" />
</g>
		<g transform="matrix(1 0 0 1 4.6 3.82)"  >
<path style="stroke: none; stroke-width: 1; stroke-dasharray: none; stroke-linecap: butt; stroke-dashoffset: 0; stroke-linejoin: miter; stroke-miterlimit: 4; fill: rgb(254,254,254); fill-rule: nonzero; opacity: 1;" vector-effect="non-scaling-stroke"  transform=" translate(-132.36, -83.74)" d="M 66.698338 40.8561434 C 60.139686 40.9229891 58.202715 40.8561434 57.5840035 40.7100156 C 57.346157 41.8401744 52.920349 62.256098 52.9079125 62.273198 C 51.9549725 66.403641 51.261643 69.347961 48.9064975 71.2491775 C 47.5695833 72.3544635 46.0088137 72.8876745 44.1993159 72.8876745 C 41.2907503 72.8876745 39.5962892 71.4434965 39.3118063 68.704377 L 39.2573971 67.7638735 C 39.2573971 67.7638735 40.1434913 62.231225 40.1434913 62.200134 C 40.1434913 62.200134 44.7884909 43.5952629 45.6201759 41.1359627 C 45.6637033 40.9960531 45.6761397 40.9229891 45.6870215 40.8561434 C 36.6457507 40.9354255 35.0430082 40.8561434 34.9326351 40.7100156 C 34.8720075 40.9105527 34.6481522 42.0640298 34.6481522 42.0640298 L 29.9052159 63.0333735 L 29.4979234 64.8117805 L 28.7097659 70.6289115 C 28.7097659 72.3544635 29.0486581 73.762887 29.7233334 74.9536735 C 31.8841598 78.729679 38.0479561 79.2955355 41.5348148 79.2955355 C 46.0274683 79.2955355 50.241857 78.341041 53.089795 76.598389 C 58.0332685 73.677387 59.3266555 69.1116695 60.4801325 65.0542905 L 61.014898 62.972746 C 61.014898 62.972746 65.7998075 43.6496723 66.6128375 41.1359627 C 66.643929 40.9960531 66.656365 40.9229891 66.698338 40.8561434 Z M 82.9786885 56.444252 C 81.825211 56.444252 79.7172395 56.724071 77.823796 57.6521385 C 77.1366845 58.0050215 76.486882 58.412314 75.8013245 58.818052 L 76.420036 56.5841615 L 76.081144 56.20796 C 72.0657375 57.0209905 71.167207 57.129809 67.4580475 57.6521385 L 67.147137 57.8588935 C 66.7165265 61.4296985 66.3341065 64.1144085 64.7375825 71.133208 C 64.129753 73.7199815 63.498605 76.331628 62.8659025 78.912183 L 63.036903 79.2401935 C 66.8377815 79.0396565 67.9912585 79.0396565 71.29468 79.0940655 L 71.562063 78.8033645 C 71.981792 76.65342 72.036201 76.1497455 72.965823 71.795447 C 73.402652 69.7310025 74.313619 65.1948215 74.7628845 63.579643 C 75.588351 63.197223 76.402936 62.8210215 77.1802115 62.8210215 C 79.0316825 62.8210215 78.8062725 64.4362005 78.734763 65.079785 C 78.655481 66.160198 77.9808055 69.68903 77.2890305 72.7188505 L 76.8273285 74.674476 C 76.5055365 76.1186545 76.152653 77.522414 75.830861 78.954156 L 75.9707705 79.2401935 C 79.7172395 79.0396565 80.859835 79.0396565 84.0591015 79.0940655 L 84.435303 78.8033645 C 85.013596 75.4455335 85.183042 74.547003 86.209046 69.6579385 L 86.725157 67.411612 C 87.727843 63.0153405 88.2315175 60.786114 87.4728965 58.970398 C 86.670748 56.93549 84.7462135 56.444252 82.9786885 56.444252 Z M 101.165696 61.047123 C 99.1743155 61.429543 97.904247 61.684489 96.6419515 61.8492715 C 95.3905375 62.049809 94.1702145 62.2316915 92.24568 62.499074 L 92.093334 62.637429 L 91.9534245 62.7478025 C 91.7528875 64.181099 91.6129775 65.420076 91.3471495 66.876691 C 91.1217395 68.383051 90.7750745 70.094612 90.2107725 72.5539125 C 89.7739435 74.436474 89.5485335 75.092495 89.299805 75.754734 C 89.057295 76.4169725 88.7899125 77.060557 88.298674 78.9120275 L 88.413711 79.0830285 L 88.510093 79.240038 C 90.308709 79.1545375 91.4855045 79.09391 92.6949455 79.0830285 C 93.902832 79.039501 95.1542455 79.0830285 97.0912165 79.09391 L 97.260663 78.955555 L 97.4425455 78.803209 C 97.7223645 77.133621 97.7643375 76.6843555 97.935338 75.8697705 C 98.104784 74.9961125 98.39704 73.786672 99.113688 70.556314 C 99.4525805 69.039072 99.8303365 67.5264935 100.181665 65.97816 C 100.546985 64.436045 100.929404 62.9172485 101.293169 61.4000065 L 101.23876 61.2165695 L 101.165696 61.047123 Z M 101.208135 54.841043 C 99.3986375 53.7730665 96.222689 54.1119585 94.0851805 55.587228 C 91.953891 57.0329605 91.711381 59.0849685 93.5146605 60.166936 C 95.293067 61.2053765 98.481452 60.896021 100.600305 59.408315 C 102.726932 57.9314915 102.99276 55.898138 101.208135 54.841043 Z M 112.151399 79.574733 C 115.812368 79.574733 119.565055 78.565829 122.389675 75.571763 C 124.562938 73.143554 125.559405 69.5307765 125.904516 68.043071 C 127.028457 63.112034 126.153244 60.809743 125.054176 59.407538 C 123.384588 57.2700295 120.43405 56.5844725 117.373138 56.5844725 C 115.532549 56.5844725 111.148714 56.766355 107.724038 59.923649 C 105.264737 62.2010665 104.12836 65.291515 103.442803 68.2544895 C 102.751028 71.2734285 101.955097 76.70814 106.95298 78.7306115 C 108.495095 79.3928505 110.718104 79.574733 112.151399 79.574733 Z M 111.865362 68.4798995 C 112.709484 64.7458675 113.705951 61.6118915 116.249197 61.6118915 C 118.242132 61.6118915 118.386705 63.943719 117.500611 67.6901875 C 117.342047 68.5218725 116.614517 71.6138755 115.630486 72.9305805 C 114.943374 73.902175 114.130344 74.49135 113.231813 74.49135 C 112.96443 74.49135 111.374124 74.49135 111.349251 72.1299865 C 111.336815 70.964073 111.574661 69.7732865 111.865362 68.4798995 Z M 135.05616 79.094532 L 135.342197 78.803831 C 135.747935 76.6538865 135.814781 76.148657 136.713312 71.7959135 C 137.162577 69.731469 138.092198 65.195288 138.529028 63.580109 C 139.356049 63.196135 140.156643 62.8199335 140.958791 62.8199335 C 142.797825 62.8199335 142.57397 64.4351125 142.500907 65.0786965 C 142.43406 66.1606645 141.759386 69.6879415 141.055173 72.717762 L 140.618345 74.673388 C 140.284116 76.1191205 139.920351 77.521326 139.598559 78.9546225 L 139.738469 79.24066 C 143.497374 79.0401225 144.596441 79.0401225 147.814363 79.094532 L 148.203001 78.803831 C 148.767303 75.4444455 148.919649 74.5459145 149.976744 69.658405 L 150.480419 67.410524 C 151.487768 63.0142525 151.99766 60.7865805 151.251476 58.9708645 C 150.426009 56.9359565 148.489038 56.4447185 146.746386 56.4447185 C 145.591354 56.4447185 143.472501 56.722983 141.589939 57.652605 C 140.916819 58.005488 140.242143 58.411226 139.579904 58.8185185 L 140.156643 56.584628 L 139.847287 56.206872 C 135.833436 57.021457 134.91625 57.1302755 131.211754 57.652605 L 130.927271 57.85936 C 130.478006 61.4301645 130.112686 64.1133205 128.516162 71.1336745 C 127.908333 73.720448 127.277185 76.332094 126.646037 78.9126495 L 126.815483 79.24066 C 130.622579 79.0401225 131.758957 79.0401225 135.05616 79.094532 Z M 162.673542 79.2398825 C 162.909834 78.0864055 164.313594 71.2494885 164.32603 71.2494885 C 164.32603 71.2494885 165.52148 66.232951 165.594545 66.0510685 C 165.594545 66.0510685 165.970746 65.5287395 166.346947 65.321984 L 166.900367 65.321984 C 172.122106 65.321984 178.018519 65.321984 182.6402 61.92218 C 185.785058 59.590353 187.935002 56.1470215 188.89416 51.9621695 C 189.142889 50.9361655 189.326326 49.7158426 189.326326 48.4955199 C 189.326326 46.8927774 189.004534 45.3071349 188.074912 44.0681575 C 185.718212 40.770954 181.025022 40.7103265 175.60741 40.6854536 C 175.59031 40.6854536 172.93669 40.7103265 172.93669 40.7103265 C 166.001837 40.7958268 163.220744 40.770954 162.078149 40.6310444 C 161.981767 41.1362735 161.799884 42.0348043 161.799884 42.0348043 C 161.799884 42.0348043 159.315711 53.547812 159.315711 53.5664665 C 159.315711 53.5664665 153.371107 78.0444325 153.091287 79.1979095 C 159.146265 79.124846 161.628884 79.124846 162.673542 79.2398825 Z M 167.276569 58.7882045 C 167.276569 58.7882045 169.917752 47.2985153 169.905316 47.3420427 L 169.990815 46.7528678 L 170.028125 46.3036024 L 171.083665 46.4124209 C 171.083665 46.4124209 176.530813 46.8803409 176.658287 46.8927774 C 178.808231 47.7244624 179.694325 49.8681887 179.075614 52.666381 C 178.511312 55.223618 176.852606 57.373563 174.721316 58.412003 C 172.966227 59.291879 170.816282 59.364943 168.601047 59.364943 L 167.167751 59.364943 L 167.276569 58.7882045 Z M 183.721236 68.692718 C 183.023242 71.668129 182.221093 77.102841 187.194103 79.039812 C 188.779745 79.714487 190.200605 79.915024 191.644784 79.8419605 C 193.169799 79.759569 194.582886 78.99473 195.891818 77.8941075 C 195.773673 78.346482 195.655527 78.7988565 195.537381 79.2527855 L 195.76279 79.5434865 C 199.339813 79.392695 200.449763 79.392695 204.325259 79.4222315 L 204.676588 79.1548485 C 205.242445 75.8281085 205.775656 72.597751 207.246262 66.2334175 C 207.962909 63.184942 208.678003 60.1660035 209.413306 57.1299645 L 209.29827 56.795736 C 205.296854 57.537257 204.227323 57.6958215 200.378253 58.241469 L 200.085998 58.479315 C 200.047134 58.788671 200.006716 59.08559 199.969406 59.3825095 C 199.370904 58.4155785 198.503465 57.590112 197.164996 57.0755555 C 195.453434 56.4024345 191.433365 57.269874 187.977597 60.416286 C 185.549388 62.662613 184.383475 65.7406245 183.721236 68.692718 Z M 192.12514 68.8746005 C 192.981698 65.2074135 193.965729 62.104529 196.515194 62.104529 C 198.127263 62.104529 198.976048 63.5922345 198.803493 66.1292625 C 198.666693 66.761965 198.51901 67.4288675 198.343345 68.182825 C 198.0884 69.2725655 197.811689 70.3529785 197.542752 71.4349465 C 197.26915 72.174913 196.950468 72.8729065 196.600694 73.3377175 C 195.944673 74.267339 194.383904 74.8440775 193.485373 74.8440775 C 193.230426 74.8440775 191.65722 74.8440775 191.602811 72.524687 C 191.590374 71.3696555 191.828221 70.1804235 192.12514 68.8746005 Z M 236.010903 56.766044 L 235.701548 56.413161 C 231.742105 57.2153095 231.025456 57.3427825 227.387807 57.834021 L 227.120423 58.1014035 C 227.107988 58.144931 227.097105 58.211777 227.078451 58.2724045 L 227.066014 58.211777 C 224.357986 64.459519 224.437268 63.111723 222.232914 68.0303235 C 222.220477 67.806468 222.220477 67.6665585 222.208042 67.428712 L 221.656175 56.766044 L 221.30951 56.413161 C 217.161968 57.2153095 217.064031 57.3427825 213.233616 57.834021 L 212.935143 58.1014035 C 212.893169 58.228877 212.893169 58.3687865 212.868297 58.5211325 L 212.893169 58.575542 C 213.371971 61.022406 213.256934 60.4767585 213.737291 64.338264 C 213.961146 66.233262 214.25962 68.139142 214.483475 70.010822 C 214.861232 73.143243 215.072651 74.685358 215.534352 79.4656035 C 212.947578 83.7344015 212.335085 85.3495805 209.844694 89.0960495 L 209.861794 89.1333585 L 208.10826 91.906678 C 207.907723 92.198934 207.725841 92.399471 207.470894 92.4849715 C 207.191075 92.6233265 206.82731 92.648199 206.32208 92.648199 L 205.350486 92.648199 L 203.906308 97.451763 L 208.860663 97.5372635 C 211.769228 97.524827 213.597381 96.1645945 214.581412 94.336442 L 217.696733 88.9981125 L 217.646987 88.9981125 L 217.974998 88.621911 C 220.070533 84.110603 236.010903 56.766044 236.010903 56.766044 Z M 183.72108 119.853625 L 181.619326 119.853625 L 189.398302 94.1242455 L 191.978857 94.1242455 L 192.798105 91.4737355 L 192.877387 94.421165 C 192.781005 96.243099 194.214302 97.858278 197.979425 97.5908955 L 202.333723 97.5908955 L 203.832311 92.63654 L 202.193814 92.63654 C 201.251756 92.63654 200.814927 92.3986935 200.869337 91.888801 L 200.790054 88.890071 L 192.726596 88.890071 L 192.726596 88.9056165 C 190.119614 88.960026 182.33442 89.1558995 180.758105 89.5756285 C 178.850671 90.0668665 176.840635 91.5125995 176.840635 91.5125995 L 177.630347 88.85898 L 170.087664 88.85898 L 168.516013 94.1242455 L 160.632883 120.246927 L 159.103204 120.246927 L 157.603062 125.165528 L 172.626247 125.165528 L 172.122572 126.805579 L 179.525345 126.805579 L 180.016584 125.165528 L 182.093465 125.165528 L 183.72108 119.853625 Z M 177.557284 99.352202 C 176.349398 99.6864305 174.101516 100.699998 174.101516 100.699998 L 176.100669 94.1242455 L 182.093465 94.1242455 L 180.647732 98.915373 C 180.647732 98.915373 178.796261 99.0241915 177.557284 99.352202 Z M 177.672321 108.746356 C 177.672321 108.746356 175.789759 108.982648 174.550781 109.262467 C 173.330458 109.632451 171.042159 110.798364 171.042159 110.798364 L 173.106603 103.955229 L 179.13049 103.955229 L 177.672321 108.746356 Z M 174.31449 119.914253 L 168.30304 119.914253 L 170.045692 114.139095 L 176.038487 114.139095 L 174.31449 119.914253 Z M 188.791404 103.955229 L 197.456474 103.955229 L 196.211278 107.987735 L 187.431173 107.987735 L 186.112912 112.396443 L 193.795505 112.396443 L 187.978375 120.587374 C 187.571082 121.188986 187.205762 121.401959 186.800025 121.571405 C 186.392732 121.77816 185.857967 122.02067 185.239255 122.02067 L 183.107965 122.02067 L 181.643577 126.849107 L 187.218198 126.849107 C 190.115882 126.849107 191.827443 125.530847 193.091294 123.800631 L 197.080273 118.341047 L 197.936831 123.884578 C 198.118713 124.923017 198.864898 125.530847 199.370127 125.767139 C 199.928211 126.046958 200.50495 126.527315 201.319535 126.598824 C 202.193192 126.636133 202.82434 126.66567 203.244069 126.66567 L 205.983189 126.66567 L 207.627904 121.262049 L 206.547491 121.262049 C 205.927224 121.262049 204.859248 121.157894 204.677366 120.963575 C 204.495483 120.727283 204.495483 120.363518 204.397546 119.810098 L 203.528552 114.254131 L 199.970183 114.254131 L 201.530954 112.396443 L 210.293959 112.396443 L 211.641755 107.987735 L 203.528552 107.987735 L 204.792402 103.955229 L 212.880733 103.955229 L 214.380875 98.982219 L 190.266674 98.982219 L 188.791404 103.955229 Z M 115.605924 121.037106 L 117.628395 114.309008 L 125.940582 114.309008 L 127.459378 109.304907 L 119.139419 109.304907 L 120.409488 105.163582 L 128.539791 105.163582 L 130.046152 100.318045 L 109.703292 100.318045 L 108.228023 105.163582 L 112.849704 105.163582 L 111.616945 109.304907 L 106.982827 109.304907 L 105.446931 114.394508 L 110.067057 114.394508 L 107.371465 123.295869 C 107.0077 124.474219 107.542466 124.923484 107.881358 125.470686 C 108.228023 126.003897 108.579352 126.35678 109.369064 126.557317 C 110.183649 126.7392 110.741733 126.848018 111.500354 126.848018 L 120.87119 126.848018 L 122.540778 121.304488 L 118.387016 121.875009 C 117.584868 121.875009 115.363414 121.778627 115.605924 121.037106 Z M 116.55933 88.8286665 L 114.452913 92.635763 C 114.002093 93.4674475 113.596355 93.983559 113.231036 94.221405 C 112.909244 94.4219425 112.271878 94.505888 111.348474 94.505888 L 110.249406 94.505888 L 108.780355 99.3762975 L 112.430442 99.3762975 C 114.18553 99.3762975 115.533326 98.7327135 116.176911 98.410921 C 116.868686 98.040938 117.050568 98.252357 117.585334 97.736246 L 118.818094 96.668269 L 130.216064 96.668269 L 131.728643 91.5973225 L 123.385365 91.5973225 L 124.84198 88.8286665 L 116.55933 88.8286665 Z M 133.386416 121.134887 C 133.192097 120.855067 133.332007 120.362275 133.628926 119.336271 L 136.744247 109.024932 L 147.826644 109.024932 C 149.441823 109.001614 150.607736 108.982959 151.366357 108.92855 C 152.180942 108.843049 153.067037 108.552348 154.032413 108.030019 C 155.028881 107.482817 155.538773 106.906078 155.969384 106.243839 C 156.44974 105.583155 157.220798 104.137422 157.883037 101.908196 L 161.798952 88.859291 L 150.298381 88.926137 C 150.298381 88.926137 146.757113 89.448466 145.197898 90.0252045 C 143.624692 90.668789 141.37681 92.4658505 141.37681 92.4658505 L 142.415251 88.8888275 L 135.31095 88.8888275 L 125.364931 121.874854 C 125.012048 123.155803 124.775756 124.085425 124.721347 124.643509 C 124.702692 125.245121 125.479968 125.840514 125.983643 126.289779 C 126.579036 126.739045 127.458911 126.665981 128.303033 126.739045 C 129.190682 126.805891 130.452978 126.847863 132.195629 126.847863 L 137.655214 126.847863 L 139.33102 121.189296 L 134.443511 121.650998 C 133.921182 121.650998 133.543426 121.371178 133.386416 121.134887 Z M 138.754282 102.060541 L 150.394763 102.060541 L 149.654797 104.379932 C 149.550642 104.434341 149.301913 104.264895 148.117345 104.404805 L 138.037634 104.404805 L 138.754282 102.060541 Z M 141.086109 94.2815665 L 152.824526 94.2815665 L 151.980405 97.075095 C 151.980405 97.075095 146.447757 97.020686 145.561663 97.1839135 C 141.662847 97.858589 139.38543 99.941688 139.38543 99.941688 L 141.086109 94.2815665 Z M 149.915339 112.146937 C 149.818957 112.493602 149.666611 112.705021 149.453638 112.863585 C 149.217345 113.015931 148.834926 113.07034 148.264406 113.07034 L 146.605699 113.07034 L 146.703636 110.245721 L 139.804537 110.245721 L 139.524718 124.054801 C 139.513836 125.051268 139.610218 125.628007 140.339303 126.089709 C 141.068387 126.666447 143.314714 126.739511 146.338316 126.739511 L 150.661524 126.739511 L 152.222294 121.570628 L 148.458724 121.777383 L 147.207311 121.850447 C 147.03631 121.777383 146.873082 121.710537 146.6912 121.528655 C 146.532635 121.371645 146.265253 121.468028 146.30878 120.47156 L 146.338316 116.931847 L 150.285323 116.768619 C 152.416613 116.768619 153.32758 116.075288 154.104855 115.414604 C 154.846376 114.781902 155.088886 114.054372 155.368706 113.07034 L 156.030945 109.936365 L 150.607114 109.936365 L 149.915339 112.146937 Z" stroke-linecap="round" />
</g>
</g>
</g>
<g transform="matrix(0.15 0 0 0.15 260.03 50)"  >
<path style="stroke: rgb(0,0,0); stroke-width: 0; stroke-dasharray: none; stroke-linecap: butt; stroke-dashoffset: 0; stroke-linejoin: miter; stroke-miterlimit: 4; fill: rgb(20,52,203); fill-rule: nonzero; opacity: 1;" vector-effect="non-scaling-stroke"  transform=" translate(-500, -162.35)" d="M 651.19 0.5 C 580.26 0.5 516.8700000000001 37.27 516.8700000000001 105.19 C 516.8700000000001 183.09 629.2900000000001 188.47 629.2900000000001 227.61 C 629.2900000000001 244.09 610.4100000000001 258.84000000000003 578.1500000000001 258.84000000000003 C 532.3800000000001 258.84000000000003 498.1700000000001 238.23000000000002 498.1700000000001 238.23000000000002 L 483.5300000000001 306.78000000000003 C 483.5300000000001 306.78000000000003 522.94 324.19000000000005 575.2600000000001 324.19000000000005 C 652.8100000000001 324.19000000000005 713.8400000000001 285.62000000000006 713.8400000000001 216.53000000000006 C 713.8400000000001 134.21000000000006 600.9500000000002 128.99000000000007 600.9500000000002 92.67000000000006 C 600.9500000000002 79.76000000000006 616.4500000000002 65.62000000000006 648.6100000000001 65.62000000000006 C 684.9000000000001 65.62000000000006 714.5000000000001 80.61000000000006 714.5000000000001 80.61000000000006 L 728.8300000000002 14.410000000000053 C 728.8300000000002 14.410000000000053 696.61 0.5 651.18 0.5 L 651.18 0.5 Z M 2.22 5.5 L 0.5 15.49 C 0.5 15.49 30.34 20.95 57.22 31.85 C 91.83 44.34 94.28999999999999 51.620000000000005 100.12 74.2 L 163.63 319.03000000000003 L 248.76999999999998 319.03000000000003 L 379.93 5.5 L 294.99 5.5 L 210.71 218.67 L 176.32 37.97 C 173.17 17.29 157.19 5.490000000000002 137.64 5.490000000000002 C 137.64 5.490000000000002 2.2299999999999898 5.490000000000002 2.2299999999999898 5.490000000000002 Z M 414.09000000000003 5.5 L 347.46000000000004 319.03 L 428.46000000000004 319.03 L 494.85 5.5 L 414.09000000000003 5.5 Z M 865.85 5.5 C 846.32 5.5 835.97 15.96 828.38 34.230000000000004 L 709.71 319.03000000000003 L 794.6500000000001 319.03000000000003 L 811.08 271.56000000000006 L 914.5600000000001 271.56000000000006 L 924.5500000000001 319.0300000000001 L 999.5000000000001 319.0300000000001 L 934.12 5.5 L 865.85 5.5 Z M 876.9 90.21 L 902.0799999999999 207.86 L 834.6299999999999 207.86 L 876.9099999999999 90.21000000000001 L 876.9099999999999 90.21000000000001 Z" stroke-linecap="round" />
</g>
</svg>